<?xml version="1.0" standalone="no"?>
<!DOCTYPE svg PUBLIC "-//W3C//DTD SVG 20010904//EN"
 "http://www.w3.org/TR/2001/REC-SVG-20010904/DTD/svg10.dtd">
<svg version="1.0" xmlns="http://www.w3.org/2000/svg"
 width="512.000000pt" height="512.000000pt" viewBox="0 0 512.000000 512.000000"
 preserveAspectRatio="xMidYMid meet">

<g transform="translate(0.000000,512.000000) scale(0.100000,-0.100000)"
fill="#000000" stroke="none">
<path d="M2485 5105 c-22 -8 -41 -15 -43 -15 -1 0 -181 -175 -400 -390 l-397
-390 -140 0 c-152 0 -177 -7 -195 -56 -9 -23 -13 -24 -105 -24 -92 0 -96 1
-105 24 -19 50 -42 56 -210 56 -170 0 -214 -8 -260 -47 -48 -40 -63 -78 -68
-180 -10 -193 51 -283 192 -283 30 0 57 -4 60 -9 3 -5 67 -324 141 -710 75
-385 142 -719 150 -742 30 -85 95 -152 192 -197 l58 -27 1160 -3 c721 -2 1184
1 1223 7 121 19 212 83 261 184 26 53 51 168 169 777 l137 715 65 5 c107 9
157 49 181 144 16 63 7 221 -14 262 -22 42 -69 81 -115 94 -23 6 -211 10 -495
10 l-459 0 -386 384 c-213 211 -402 391 -421 401 -47 24 -127 29 -176 10z
m438 -465 l332 -329 -699 -1 c-385 0 -697 1 -695 3 2 2 154 150 336 330 293
288 336 327 364 327 27 0 70 -39 362 -330z"/>
<path d="M225 1631 c-56 -14 -104 -43 -148 -90 -80 -85 -78 -67 -75 -742 3
-590 3 -594 25 -635 34 -63 66 -97 125 -129 l53 -30 2330 -3 c2572 -2 2388 -7
2476 61 23 17 56 57 73 87 l31 55 3 589 c3 674 4 662 -74 746 -25 27 -66 59
-92 72 -46 23 -52 23 -421 26 -399 3 -419 1 -440 -44 -16 -37 -14 -58 12 -81
21 -20 38 -21 402 -27 423 -7 411 -5 448 -77 16 -31 17 -76 15 -601 -3 -555
-3 -567 -24 -595 -11 -15 -36 -36 -55 -45 -32 -17 -164 -18 -2329 -18 -2165 0
-2297 1 -2330 18 -19 9 -45 32 -57 51 l-23 34 0 561 c0 619 -2 603 63 650 l28
21 1806 5 c1772 5 1805 5 1819 24 20 28 17 69 -5 97 l-19 24 -1794 2 c-986 0
-1806 -2 -1823 -6z"/>
<path d="M645 1249 c-164 -58 -275 -188 -306 -358 -43 -242 134 -481 383 -521
224 -35 445 112 504 334 29 110 10 248 -49 348 -38 65 -128 145 -204 180 -58
27 -79 32 -167 35 -84 3 -111 0 -161 -18z m248 -149 c73 -27 130 -79 164 -148
59 -120 28 -272 -73 -361 -62 -54 -127 -75 -218 -69 -117 8 -204 68 -254 176
-21 47 -24 64 -20 136 3 67 9 92 31 128 78 133 231 190 370 138z"/>
<path d="M1431 1244 c-20 -26 -21 -37 -21 -420 0 -267 4 -401 11 -417 11 -24
47 -47 73 -47 7 0 25 9 39 21 l27 20 2 275 3 275 195 -282 c203 -295 217 -309
275 -295 14 4 33 18 42 33 17 25 18 58 15 418 -3 356 -5 392 -21 415 -21 30
-76 38 -106 16 -19 -14 -20 -29 -25 -294 l-5 -279 -190 276 c-104 151 -198
283 -207 293 -28 28 -82 23 -107 -8z"/>
<path d="M2341 1244 c-20 -26 -21 -37 -21 -425 l0 -398 24 -28 24 -28 162 0
162 0 24 28 c32 37 30 62 -5 98 -29 28 -32 29 -135 29 l-106 0 0 355 c0 342
-1 356 -20 375 -30 30 -83 27 -109 -6z"/>
<path d="M2969 1251 l-24 -19 -3 -405 -3 -405 24 -28 c30 -35 78 -37 110 -5
22 21 22 23 22 432 l0 411 -24 19 c-30 24 -72 24 -102 0z"/>
<path d="M3339 1251 l-24 -19 0 -412 0 -412 28 -24 c35 -30 59 -30 94 0 l28
24 5 267 5 266 183 -265 c101 -146 195 -274 209 -286 34 -27 66 -25 100 4 26
22 28 31 32 108 2 45 0 229 -4 407 -7 298 -9 325 -26 342 -27 27 -80 25 -107
-4 -21 -22 -22 -32 -24 -291 l-3 -269 -185 269 c-102 148 -195 279 -207 291
-27 28 -72 30 -104 4z"/>
<path d="M4209 1244 l-24 -26 -3 -371 c-2 -205 0 -387 3 -405 3 -18 15 -42 26
-53 17 -17 34 -19 209 -19 177 0 191 1 210 20 30 30 27 83 -6 109 -24 19 -40
21 -155 21 l-129 0 0 109 0 109 126 4 c118 3 127 4 145 27 26 32 24 73 -4 99
-21 20 -34 22 -145 22 l-122 0 0 115 0 115 135 0 c122 0 137 2 155 20 30 30
27 83 -6 109 -25 20 -40 21 -209 21 l-182 0 -24 -26z"/>
</g>
</svg>
